<?xml version="1.0" encoding="UTF-8" standalone="no"?>
<svg
   xmlns:dc="http://purl.org/dc/elements/1.1/"
   xmlns:cc="http://creativecommons.org/ns#"
   xmlns:rdf="http://www.w3.org/1999/02/22-rdf-syntax-ns#"
   xmlns:svg="http://www.w3.org/2000/svg"
   xmlns="http://www.w3.org/2000/svg"
   xmlns:sodipodi="http://sodipodi.sourceforge.net/DTD/sodipodi-0.dtd"
   xmlns:inkscape="http://www.inkscape.org/namespaces/inkscape"
   id="Layer_1"
   version="1.1"
   viewBox="0 0 300 300"
   sodipodi:docname="cc.svg"
   width="300"
   height="300"
   inkscape:version="1.0.2-2 (e86c870879, 2021-01-15)">
  <metadata
     id="metadata33">
    <rdf:RDF>
      <cc:Work
         rdf:about="">
        <dc:format>image/svg+xml</dc:format>
        <dc:type
           rdf:resource="http://purl.org/dc/dcmitype/StillImage" />
        <dc:title></dc:title>
      </cc:Work>
    </rdf:RDF>
  </metadata>
  <sodipodi:namedview
     pagecolor="#ffffff"
     bordercolor="#666666"
     borderopacity="1"
     objecttolerance="10"
     gridtolerance="10"
     guidetolerance="10"
     inkscape:pageopacity="0"
     inkscape:pageshadow="2"
     inkscape:window-width="2560"
     inkscape:window-height="1351"
     id="namedview31"
     showgrid="false"
     inkscape:zoom="1.1865234"
     inkscape:cx="554.99454"
     inkscape:cy="376.18078"
     inkscape:window-x="-9"
     inkscape:window-y="-9"
     inkscape:window-maximized="1"
     inkscape:current-layer="Layer_1"
     inkscape:document-rotation="0" />
  <!-- Generator: Adobe Illustrator 30.1.0, SVG Export Plug-In . SVG Version: 2.1.1 Build 136)  -->
  <defs
     id="defs4">
    <style
       id="style2">
      .st0 {
        fill: #d97757;
      }

      .st1 {
        fill: #faf9f5;
      }
    </style>
  </defs>
  <path
     class="st0"
     d="m 131.6875,276.6375 3.95,-17.45 4.5,-22.525 3.65,-18.025 3.375,-22.225 1.975,-7.325 -0.275,-0.575 -1.4,0.275 -16.9,23.075 -25.625,34.625 -20.275,21.4 -4.775,1.975 -8.45,-4.225 0.85,-7.875 4.775,-6.75 27.875,-35.75 16.9,-22.225 10.975,-12.675 -0.275,-1.7 h -0.575 l -74.3,48.425 -13.225,1.7 -5.9,-5.35 0.85,-8.725 2.825,-2.825 22.225,-15.475 55.45,-30.95 0.85,-2.825 -0.85,-1.4 h -2.825 l -9.3,-0.575 -31.525,-0.85 -27.3,-1.125 -26.75,-1.4 -6.75,-1.4 -6.2,-8.45 0.575,-4.225 5.625,-3.65 8.175,0.575 17.725,1.4 26.75,1.7 19.425,1.125 28.7,3.1 h 4.5 l 0.575,-1.975 -1.4,-1.125 -1.125,-1.125 -27.875,-18.575 -29.825,-19.7 -15.775,-11.55 -8.45,-5.9 -4.225,-5.35 -1.7,-11.825 7.6,-8.45 10.425,0.85 2.525,0.575 10.425,8.175 22.225,17.175 29.275,21.675 4.225,3.375 1.975,-1.125 v -0.85 l -1.975,-3.1 -15.775,-28.7 -16.9,-29.275 -7.6,-12.1 -1.975,-7.325 c -0.75,-2.525 -1.125,-5.35 -1.125,-8.45 l 8.725,-11.825 4.775,-1.7 11.825,1.7 4.775,4.225 7.325,16.6 11.55,26.175 18.3,35.475 5.35,10.7 2.825,9.575 1.125,3.1 h 1.975 v -1.7 l 1.4,-20.275 2.825,-24.5 2.825,-31.525 0.85,-9 4.5,-10.7 8.725,-5.625 6.75,3.1 5.625,8.175 -0.85,5.075 -3.1,21.675 -6.75,34.05 -4.225,23.075 h 2.525 l 2.825,-3.1 11.55,-15.2 19.425,-24.2 8.45,-9.575 10.125,-10.7 6.475,-5.075 h 12.1 l 8.725,13.225 -3.95,13.8 -12.375,15.775 -10.425,13.225 -14.925,19.975 -9,16.05 0.85,1.125 h 1.975 l 33.5,-7.325 18.3,-3.1 21.4,-3.65 9.85,4.5 1.125,4.5 -3.95,9.575 -23.075,5.625 -27.025,5.35 -40.25,9.575 -0.575,0.275 0.575,0.85 18.025,1.7 7.875,0.575 h 19.15 l 35.475,2.525 9.3,6.2 5.35,7.325 -0.85,5.9 -14.35,7.025 -19.15,-4.5 -45.025,-10.7 -15.2,-3.65 h -2.25 v 1.125 l 12.95,12.675 23.35,21.1 29.55,27.3 1.4,6.75 -3.65,5.625 -3.95,-0.575 -25.9,-19.7 -10.125,-8.725 -22.525,-18.85 h -1.4 v 1.975 l 5.075,7.6 27.575,41.375 1.4,12.675 -1.975,3.95 -7.325,2.525 -7.6,-1.4 -16.325,-22.525 -16.6,-25.625 -13.5,-22.8 -1.4,1.125 -8.175,85 -3.65,4.225 -8.45,3.375 -7.025,-5.35 -3.95,-8.725 z"
     id="path28"
     style="stroke-width:0.25" />
</svg>
