<svg xmlns="http://www.w3.org/2000/svg" width="128" height="128" viewBox="0 0 128 128">
  <style>
    .bg { fill: #4c4f69; }
    .fg { fill: #e6e9ef; }
    @media (prefers-color-scheme: dark) {
      .bg { fill: #e6e9ef; }
      .fg { fill: #4c4f69; }
    }
  </style>
  <g class="bg">
    <rect width="42.667" height="42.667" x="0" y="0"/>
    <rect width="42.667" height="42.667" x="0" y="42.667"/>
    <rect width="42.667" height="42.667" x="42.667" y="42.667"/>
    <rect width="42.667" height="42.667" x="0" y="85.333"/>
    <rect width="42.667" height="42.667" x="42.667" y="85.333"/>
    <rect width="42.667" height="42.667" x="85.333" y="85.333"/>
  </g>
  <g class="fg">
    <path d="m 20.963871,40.902344 q -6.398437,0 -9.871094,-3.554688 Q 7.620121,33.765625 7.620121,27.339844 h 5.46875 q 0,4.101562 2.078125,6.371093 2.105469,2.269532 5.933594,2.269532 3.71875,0 5.714844,-2.242188 2.023437,-2.269531 2.023437,-6.398437 V 1.5273437 h 5.46875 V 27.339844 q 0,6.453125 -3.527344,10.007812 -3.527343,3.554688 -9.816406,3.554688 z M 18.666996,6.7226562 V 1.5273437 h 12.742188 v 5.1953125 z"/>
    <path d="M 5.7880898,83.414062 16.999027,44.585937 h 7.929688 l 11.210937,38.828125 h -5.742187 l -9.1875,-34.125 h -0.492188 l -9.1875,34.125 z m 5.1953122,-9.460937 v -5.195313 h 19.6875 v 5.195313 z"/>
    <path d="m 66.980469,83.960937 q -8.695313,0 -13.042969,-5.003906 -4.347656,-5.003906 -4.347656,-15.011719 0,-9.488281 4.511718,-14.683593 4.511719,-5.222657 12.660157,-5.222657 4.074218,0 7.136718,1.285157 3.0625,1.257812 4.511719,3.582031 l -4.074219,4.046875 q -1.257812,-1.859375 -3.171875,-2.871094 -1.886718,-1.011719 -4.074218,-1.011719 -5.523438,0 -8.585938,3.828125 -3.0625,3.800782 -3.0625,10.773438 0,7.628906 3.0625,11.457031 3.0625,3.800781 9.132813,3.800781 2.597656,0 4.566406,-0.492187 1.996094,-0.519531 3.253906,-0.875 l 2.132813,4.757812 q -1.148438,0.355469 -4.046875,1.011719 -2.871094,0.628906 -6.5625,0.628906 z m 5.414062,-1.640625 V 64 h 5.195313 v 18.320312 z m -7.929687,-13.125 V 64 h 12.960937 v 5.195312 z"/>
    <path d="m 20.034184,110.00781 0.820312,-6.28906 h 0.328125 l 4.429688,-16.679688 h 3.882812 v 6.890625 H 27.909184 L 23.479496,110.00781 Z M 8.057621,125.86719 V 87.039062 h 5.25 V 125.86719 Z M 18.448246,110.00781 14.018559,93.929687 h -1.585938 v -6.890625 h 3.882813 l 4.429687,16.679688 h 0.21875 l 0.546875,6.28906 z m 10.171875,15.85938 V 87.039062 h 5.25 v 38.828128 z"/>
    <path d="M 48.824219,125.86719 60.035156,87.039062 h 7.929688 l 11.210937,38.828128 h -5.742187 l -9.1875,-34.125003 h -0.492188 l -9.1875,34.125003 z m 5.195312,-9.46094 v -5.19531 h 19.6875 v 5.19531 z"/>
    <path d="M 112.22871,125.86719 100.19746,96.335937 h -2.515629 v -9.296875 h 3.609379 l 12.03125,29.531248 h 1.36718 v 9.29688 z m -17.828129,0 V 87.039062 h 5.25 v 38.828128 z m 19.468749,0 V 87.039062 h 5.25 v 38.828128 z"/>
  </g>
</svg>
