<?xml version="1.0" encoding="UTF-8" standalone="no"?>
<svg
   xmlns:dc="http://purl.org/dc/elements/1.1/"
   xmlns:cc="http://creativecommons.org/ns#"
   xmlns:rdf="http://www.w3.org/1999/02/22-rdf-syntax-ns#"
   xmlns:svg="http://www.w3.org/2000/svg"
   xmlns="http://www.w3.org/2000/svg"
   xmlns:sodipodi="http://sodipodi.sourceforge.net/DTD/sodipodi-0.dtd"
   xmlns:inkscape="http://www.inkscape.org/namespaces/inkscape"
   width="300"
   height="300"
   viewBox="0 0 300 300"
   fill="none"
   version="1.1"
   id="svg20"
   sodipodi:docname="gc-dark.svg"
   inkscape:version="1.0.2-2 (e86c870879, 2021-01-15)">
  <metadata
     id="metadata24">
    <rdf:RDF>
      <cc:Work
         rdf:about="">
        <dc:format>image/svg+xml</dc:format>
        <dc:type
           rdf:resource="http://purl.org/dc/dcmitype/StillImage" />
        <dc:title></dc:title>
      </cc:Work>
    </rdf:RDF>
  </metadata>
  <sodipodi:namedview
     pagecolor="#ffffff"
     bordercolor="#666666"
     borderopacity="1"
     objecttolerance="10"
     gridtolerance="10"
     guidetolerance="10"
     inkscape:pageopacity="0"
     inkscape:pageshadow="2"
     inkscape:window-width="2560"
     inkscape:window-height="1351"
     id="namedview22"
     showgrid="false"
     inkscape:pagecheckerboard="true"
     inkscape:zoom="1.2691399"
     inkscape:cx="-158.06412"
     inkscape:cy="99.546434"
     inkscape:window-x="-9"
     inkscape:window-y="-9"
     inkscape:window-maximized="1"
     inkscape:current-layer="svg20" />
  <g
     clip-path="url(#clip0_731_27436)"
     id="g10"
     transform="matrix(3.125,0,0,3.125,0,0.05809375)">
    <g
       clip-path="url(#clip1_731_27436)"
       id="g8">
      <path
         fill-rule="evenodd"
         clip-rule="evenodd"
         d="M 95.6877,67.9677 C 92.2446,73.9488 72.2522,88.0617 48,88.0617 23.7478,88.0617 3.75535,73.9488 0.312312,67.9677 0.0605215,67.5303 -0.0207525,67.031 -0.0207525,66.5263 l 10e-8,-10.6476 c 0,-0.4414 0.0681357,-0.8801 0.2314514,-1.2902 C 1.69959,50.8499 5.59895,45.4192 10.6313,43.9621 11.2985,42.2494 12.2867,39.7456 13.2087,37.8974 13.0543,36.4833 13,35.0248 13,33.5512 c 0,-5.3238 1.1285,-9.9936 4.5288,-13.4711 1.5882,-1.6242 3.5588,-2.8701 5.8958,-3.8066 5.5971,-4.5471 13.5674,-8.37238 24.489,-8.37238 10.9216,0 19.0647,3.82528 24.6618,8.37238 2.337,0.9365 4.3076,2.1824 5.8958,3.8066 C 81.8715,23.5576 83,28.2274 83,33.5512 c 0,1.4736 -0.0543,2.9321 -0.2087,4.3462 0.922,1.8482 1.9102,4.352 2.5774,6.0647 5.0323,1.4571 8.9317,6.8878 10.4206,10.6264 0.1633,0.4101 0.2315,0.8488 0.2315,1.2902 v 10.6476 c 0,0.5047 -0.0813,1.004 -0.3331,1.4414 z M 51.253,32.2606 C 51.0828,30.9345 51.0018,29.747 50.9995,28.686 v -0.0839 c 0.0053,-3.0779 0.6781,-5.0806 1.7529,-6.3107 1.3648,-1.5619 4.1855,-2.7586 10.1305,-2.1152 6.023,0.6518 9.3896,2.1467 11.2983,4.0987 1.8479,1.8899 2.8187,4.7173 2.8187,9.2763 0,4.8439 -0.6981,7.7056 -2.2329,9.4465 C 73.3075,44.6531 70.4335,46 64.1386,46 59.2994,46 56.5326,44.4261 54.7637,42.2493 52.8644,39.912 51.7955,36.4878 51.253,32.2606 Z m -6.506,0 c 0.1702,-1.3262 0.2512,-2.5136 0.2535,-3.5746 v -0.0839 c -0.0053,-3.0779 -0.6781,-5.0807 -1.7529,-6.3107 -1.3648,-1.5619 -4.1855,-2.7586 -10.1305,-2.1152 -6.023,0.6518 -9.3896,2.1467 -11.2983,4.0987 -1.8479,1.8898 -2.8187,4.7173 -2.8187,9.2763 0,4.8439 0.6981,7.7056 2.2329,9.4465 C 22.6925,44.6531 25.5665,46 31.8614,46 c 4.8392,0 7.606,-1.5739 9.3749,-3.7507 1.8993,-2.3374 2.9682,-5.7615 3.5107,-9.9887 z m 3.9419,11.7377 c -0.2297,0.0012 0.2296,0 0,0 -0.2295,0 -1.1481,0.0012 -1.3778,0 -0.4234,0.7092 -0.8943,1.3899 -1.4185,2.0349 C 42.8139,49.8219 38.2182,52 31.8613,52 24.9615,52 19.9049,50.564 16.7324,46.9657 16.552,46.7611 16.3906,46.5469 16.3906,46.5469 L 16,46.9657 v 26.3366 c 5.7392,3.119 18.0576,8.7161 32,8.7161 13.9424,0 26.2608,-5.5971 32,-8.7161 V 46.9657 l -0.3906,-0.4188 c 0,0 -0.1322,0.1811 -0.3418,0.4188 C 76.0951,50.564 71.0385,52 64.1387,52 57.7818,52 53.1861,49.8219 50.1074,46.0332 49.5832,45.3882 49.1123,44.7075 48.6889,43.9983 Z"
         fill="#ffffff"
         id="path2" />
      <path
         fill-rule="evenodd"
         clip-rule="evenodd"
         d="m 58,57 c 2.2091,0 4,1.7909 4,4 v 8 c 0,2.2092 -1.7909,4 -4,4 -2.2091,0 -4,-1.7908 -4,-4 v -8 c 0,-2.2091 1.7909,-4 4,-4 z"
         fill="#ffffff"
         id="path4" />
      <path
         fill-rule="evenodd"
         clip-rule="evenodd"
         d="m 38,57 c 2.2091,0 4,1.7909 4,4 v 8 c 0,2.2092 -1.7909,4 -4,4 -2.2091,0 -4,-1.7908 -4,-4 v -8 c 0,-2.2091 1.7909,-4 4,-4 z"
         fill="#ffffff"
         id="path6" />
    </g>
  </g>
  <defs
     id="defs18">
    <clipPath
       id="clip0_731_27436">
      <rect
         width="96"
         height="96"
         fill="#ffffff"
         id="rect12"
         x="0"
         y="0" />
    </clipPath>
    <clipPath
       id="clip1_731_27436">
      <rect
         width="96"
         height="96"
         fill="#ffffff"
         id="rect15"
         x="0"
         y="0" />
    </clipPath>
  </defs>
</svg>
